<?xml version="1.0" standalone="no"?>
<!DOCTYPE svg PUBLIC "-//W3C//DTD SVG 20010904//EN"
 "http://www.w3.org/TR/2001/REC-SVG-20010904/DTD/svg10.dtd">
<svg version="1.0" xmlns="http://www.w3.org/2000/svg"
 width="512.000000pt" height="512.000000pt" viewBox="0 0 512.000000 512.000000"
 preserveAspectRatio="xMidYMid meet">
<metadata>
Created by potrace 1.11, written by Peter Selinger 2001-2013
</metadata>
<g transform="translate(0.000000,512.000000) scale(0.100000,-0.100000)"
fill="#000000" stroke="none">
<path d="M26 3871 c-1 -3 -2 -494 -2 -1091 l1 -1085 375 -1 c206 -1 380 -2
386 -3 8 -1 11 -126 10 -432 -1 -237 2 -433 7 -436 4 -2 20 8 36 24 27 27 287
275 380 362 42 39 297 281 360 341 14 14 55 52 89 85 l64 60 1681 0 1682 0 0
1091 0 1091 -2533 0 c-1393 0 -2534 -3 -2536 -6z"/>
</g>
</svg>
